{
  "accessors": [
    {
      "bufferView": 2,
      "componentType": 5126,
      "count": 782,
      "max": [
        3.0822415351867676,
        1.5132837295532227,
        6.2331333160400391
      ],
      "min": [
        -3.0822415351867676,
        -1.5132837295532227,
        1.4862836599349976
      ],
      "type": "VEC3"
    },
    {
      "bufferView": 2,
      "byteOffset": 9384,
      "componentType": 5126,
      "count": 782,
      "max": [
        1,
        1,
        1
      ],
      "min": [
        -1,
        -1,
        -1
      ],
      "type": "VEC3"
    },
    {
      "bufferView": 3,
      "componentType": 5126,
      "count": 782,
      "max": [
        1,
        1,
        1,
        1
      ],
      "min": [
        -1,
        -1,
        -1,
        1
      ],
      "type": "VEC4"
    },
    {
      "bufferView": 1,
      "componentType": 5126,
      "count": 782,
      "max": [
        0.99947607517242432,
        0.96906125545501709
      ],
      "min": [
        0.00052391452481970191,
        0.00052391452481970191
      ],
      "type": "VEC2"
    },
    {
      "bufferView": 1,
      "byteOffset": 6256,
      "componentType": 5126,
      "count": 782,
      "max": [
        0,
        0
      ],
      "min": [
        0,
        0
      ],
      "type": "VEC2"
    },
    {
      "bufferView": 0,
      "componentType": 5125,
      "count": 2430,
      "max": [
        781
      ],
      "min": [
        0
      ],
      "type": "SCALAR"
    },
    {
      "bufferView": 2,
      "byteOffset": 18768,
      "componentType": 5126,
      "count": 1845,
      "max": [
        1.9789502620697021,
        1.4892436265945435,
        3.7807421684265137
      ],
      "min": [
        -0.5583498477935791,
        -0.53403699398040771,
        1.4862833023071289
      ],
      "type": "VEC3"
    },
    {
      "bufferView": 2,
      "byteOffset": 40908,
      "componentType": 5126,
      "count": 1845,
      "max": [
        1,
        1,
        1
      ],
      "min": [
        -1,
        -1,
        -1
      ],
      "type": "VEC3"
    },
    {
      "bufferView": 1,
      "byteOffset": 12512,
      "componentType": 5126,
      "count": 1845,
      "max": [
        0.99865192174911499,
        0.99704664945602417
      ],
      "min": [
        0.0013480755733326077,
        0.0013480755733326077
      ],
      "type": "VEC2"
    },
    {
      "bufferView": 1,
      "byteOffset": 27272,
      "componentType": 5126,
      "count": 1845,
      "max": [
        0,
        0
      ],
      "min": [
        0,
        0
      ],
      "type": "VEC2"
    },
    {
      "bufferView": 0,
      "byteOffset": 9720,
      "componentType": 5125,
      "count": 5520,
      "max": [
        1844
      ],
      "min": [
        0
      ],
      "type": "SCALAR"
    },
    {
      "bufferView": 2,
      "byteOffset": 63048,
      "componentType": 5126,
      "count": 9611,
      "max": [
        2.8835077285766602,
        2.8936803340911865,
        6.3525218963623047
      ],
      "min": [
        -2.8789122104644775,
        -2.8435742855072021,
        3.7207129001617432
      ],
      "type": "VEC3"
    },
    {
      "bufferView": 2,
      "byteOffset": 178380,
      "componentType": 5126,
      "count": 9611,
      "max": [
        1,
        0.99999803304672241,
        1
      ],
      "min": [
        -1,
        -0.99999982118606567,
        -1
      ],
      "type": "VEC3"
    },
    {
      "bufferView": 3,
      "byteOffset": 12512,
      "componentType": 5126,
      "count": 9611,
      "max": [
        1,
        0.99995714426040649,
        0.99947983026504517,
        1
      ],
      "min": [
        -1,
        -0.99995714426040649,
        -0.99949014186859131,
        -1
      ],
      "type": "VEC4"
    },
    {
      "bufferView": 1,
      "byteOffset": 42032,
      "componentType": 5126,
      "count": 9611,
      "max": [
        0.99048876762390137,
        0.99862933158874512
      ],
      "min": [
        0.001370695186778903,
        0.001370695186778903
      ],
      "type": "VEC2"
    },
    {
      "bufferView": 1,
      "byteOffset": 118920,
      "componentType": 5126,
      "count": 9611,
      "max": [
        0,
        0
      ],
      "min": [
        0,
        0
      ],
      "type": "VEC2"
    },
    {
      "bufferView": 0,
      "byteOffset": 31800,
      "componentType": 5125,
      "count": 31500,
      "max": [
        9610
      ],
      "min": [
        0
      ],
      "type": "SCALAR"
    },
    {
      "bufferView": 2,
      "byteOffset": 293712,
      "componentType": 5126,
      "count": 1342,
      "max": [
        4.8576607704162598,
        0.69112253189086914,
        2.5041978359222412
      ],
      "min": [
        2.8954310417175293,
        -0.69112253189086914,
        0.00036466121673583984
      ],
      "type": "VEC3"
    },
    {
      "bufferView": 2,
      "byteOffset": 309816,
      "componentType": 5126,
      "count": 1342,
      "max": [
        1,
        1,
        1
      ],
      "min": [
        -1,
        -1,
        -1
      ],
      "type": "VEC3"
    },
    {
      "bufferView": 1,
      "byteOffset": 195808,
      "componentType": 5126,
      "count": 1342,
      "max": [
        0.98855513334274292,
        0.99921762943267822
      ],
      "min": [
        0.00078236660920083523,
        0.00078236660920083523
      ],
      "type": "VEC2"
    },
    {
      "bufferView": 1,
      "byteOffset": 206544,
      "componentType": 5126,
      "count": 1342,
      "max": [
        0,
        0
      ],
      "min": [
        0,
        0
      ],
      "type": "VEC2"
    },
    {
      "bufferView": 0,
      "byteOffset": 157800,
      "componentType": 5125,
      "count": 4176,
      "max": [
        1341
      ],
      "min": [
        0
      ],
      "type": "SCALAR"
    },
    {
      "bufferView": 2,
      "byteOffset": 325920,
      "componentType": 5126,
      "count": 6612,
      "max": [
        3.24159836769104,
        2.6322598457336426,
        5.9806065559387207
      ],
      "min": [
        -3.24159836769104,
        -2.6296489238739014,
        0.0003643035888671875
      ],
      "type": "VEC3"
    },
    {
      "bufferView": 2,
      "byteOffset": 405264,
      "componentType": 5126,
      "count": 6612,
      "max": [
        1,
        1,
        1
      ],
      "min": [
        -1,
        -1,
        -1
      ],
      "type": "VEC3"
    },
    {
      "bufferView": 1,
      "byteOffset": 217280,
      "componentType": 5126,
      "count": 6612,
      "max": [
        0.99868148565292358,
        0.95972579717636108
      ],
      "min": [
        0.0013185702264308929,
        0.0013185702264308929
      ],
      "type": "VEC2"
    },
    {
      "bufferView": 1,
      "byteOffset": 270176,
      "componentType": 5126,
      "count": 6612,
      "max": [
        0,
        0
      ],
      "min": [
        0,
        0
      ],
      "type": "VEC2"
    },
    {
      "bufferView": 0,
      "byteOffset": 174504,
      "componentType": 5125,
      "count": 21636,
      "max": [
        6611
      ],
      "min": [
        0
      ],
      "type": "SCALAR"
    }
  ],
  "asset": {
    "extras": {
      "author": "fadhelmeh (https://sketchfab.com/fadhelmeh)",
      "license": "CC-BY-4.0 (http://creativecommons.org/licenses/by/4.0/)",
      "source": "https://sketchfab.com/3d-models/hinterland-house-164f6fa880b94b72abba9ebbfe305f85",
      "title": "Hinterland House"
    },
    "generator": "Sketchfab-9.34.0",
    "version": "2.0"
  },
  "bufferViews": [
    {
      "buffer": 0,
      "byteLength": 261048,
      "byteOffset": 0,
      "name": "floatBufferViews",
      "target": 34963
    },
    {
      "buffer": 0,
      "byteLength": 323072,
      "byteOffset": 261048,
      "byteStride": 8,
      "name": "floatBufferViews",
      "target": 34962
    },
    {
      "buffer": 0,
      "byteLength": 484608,
      "byteOffset": 584120,
      "byteStride": 12,
      "name": "floatBufferViews",
      "target": 34962
    },
    {
      "buffer": 0,
      "byteLength": 166288,
      "byteOffset": 1068728,
      "byteStride": 16,
      "name": "floatBufferViews",
      "target": 34962
    }
  ],
  "buffers": [
    {
      "byteLength": 1235016,
      "uri": "scene.bin"
    }
  ],
  "images": [
    {
      "uri": "textures/rumah_tembok_baseColor.png"
    },
    {
      "uri": "textures/rumah_tembok_metallicRoughness.png"
    },
    {
      "uri": "textures/rumah_tembok_normal.png"
    },
    {
      "uri": "textures/jendela_pintu_baseColor.png"
    },
    {
      "uri": "textures/jendela_pintu_metallicRoughness.png"
    },
    {
      "uri": "textures/rumah_genteng_baseColor.png"
    },
    {
      "uri": "textures/rumah_genteng_metallicRoughness.png"
    },
    {
      "uri": "textures/rumah_genteng_normal.png"
    },
    {
      "uri": "textures/tangga_baseColor.png"
    },
    {
      "uri": "textures/tangga_metallicRoughness.png"
    },
    {
      "uri": "textures/rumah_papan_baseColor.png"
    },
    {
      "uri": "textures/rumah_papan_metallicRoughness.png"
    }
  ],
  "materials": [
    {
      "doubleSided": true,
      "emissiveFactor": [
        0,
        0,
        0
      ],
      "name": "rumah_tembok",
      "normalTexture": {
        "index": 2,
        "scale": 0.80000000000000004,
        "texCoord": 0
      },
      "occlusionTexture": {
        "index": 1,
        "strength": 1,
        "texCoord": 0
      },
      "pbrMetallicRoughness": {
        "baseColorFactor": [
          1,
          1,
          1,
          1
        ],
        "baseColorTexture": {
          "index": 0,
          "texCoord": 0
        },
        "metallicFactor": 0,
        "metallicRoughnessTexture": {
          "index": 1,
          "texCoord": 0
        },
        "roughnessFactor": 1
      }
    },
    {
      "doubleSided": true,
      "emissiveFactor": [
        0,
        0,
        0
      ],
      "name": "jendela_pintu",
      "occlusionTexture": {
        "index": 4,
        "strength": 1,
        "texCoord": 0
      },
      "pbrMetallicRoughness": {
        "baseColorFactor": [
          1,
          1,
          1,
          1
        ],
        "baseColorTexture": {
          "index": 3,
          "texCoord": 0
        },
        "metallicFactor": 0,
        "metallicRoughnessTexture": {
          "index": 4,
          "texCoord": 0
        },
        "roughnessFactor": 1
      }
    },
    {
      "doubleSided": true,
      "emissiveFactor": [
        0,
        0,
        0
      ],
      "name": "rumah_genteng",
      "normalTexture": {
        "index": 7,
        "scale": 1,
        "texCoord": 0
      },
      "occlusionTexture": {
        "index": 6,
        "strength": 1,
        "texCoord": 0
      },
      "pbrMetallicRoughness": {
        "baseColorFactor": [
          1,
          1,
          1,
          1
        ],
        "baseColorTexture": {
          "index": 5,
          "texCoord": 0
        },
        "metallicFactor": 0,
        "metallicRoughnessTexture": {
          "index": 6,
          "texCoord": 0
        },
        "roughnessFactor": 1
      }
    },
    {
      "doubleSided": true,
      "emissiveFactor": [
        0,
        0,
        0
      ],
      "name": "tangga",
      "occlusionTexture": {
        "index": 9,
        "strength": 1,
        "texCoord": 0
      },
      "pbrMetallicRoughness": {
        "baseColorFactor": [
          1,
          1,
          1,
          1
        ],
        "baseColorTexture": {
          "index": 8,
          "texCoord": 0
        },
        "metallicFactor": 0,
        "metallicRoughnessTexture": {
          "index": 9,
          "texCoord": 0
        },
        "roughnessFactor": 1
      }
    },
    {
      "doubleSided": true,
      "emissiveFactor": [
        0,
        0,
        0
      ],
      "name": "rumah_papan",
      "occlusionTexture": {
        "index": 11,
        "strength": 1,
        "texCoord": 0
      },
      "pbrMetallicRoughness": {
        "baseColorFactor": [
          1,
          1,
          1,
          1
        ],
        "baseColorTexture": {
          "index": 10,
          "texCoord": 0
        },
        "metallicFactor": 0,
        "metallicRoughnessTexture": {
          "index": 11,
          "texCoord": 0
        },
        "roughnessFactor": 1
      }
    }
  ],
  "meshes": [
    {
      "name": "rumah_desa_rumah_tembok_0",
      "primitives": [
        {
          "attributes": {
            "NORMAL": 1,
            "POSITION": 0,
            "TANGENT": 2,
            "TEXCOORD_0": 3,
            "TEXCOORD_1": 4
          },
          "indices": 5,
          "material": 0,
          "mode": 4
        }
      ]
    },
    {
      "name": "rumah_desa_jendela_pintu_0",
      "primitives": [
        {
          "attributes": {
            "NORMAL": 7,
            "POSITION": 6,
            "TEXCOORD_0": 8,
            "TEXCOORD_1": 9
          },
          "indices": 10,
          "material": 1,
          "mode": 4
        }
      ]
    },
    {
      "name": "rumah_desa_rumah_genteng_0",
      "primitives": [
        {
          "attributes": {
            "NORMAL": 12,
            "POSITION": 11,
            "TANGENT": 13,
            "TEXCOORD_0": 14,
            "TEXCOORD_1": 15
          },
          "indices": 16,
          "material": 2,
          "mode": 4
        }
      ]
    },
    {
      "name": "rumah_desa_tangga_0",
      "primitives": [
        {
          "attributes": {
            "NORMAL": 18,
            "POSITION": 17,
            "TEXCOORD_0": 19,
            "TEXCOORD_1": 20
          },
          "indices": 21,
          "material": 3,
          "mode": 4
        }
      ]
    },
    {
      "name": "rumah_desa_rumah_papan_0",
      "primitives": [
        {
          "attributes": {
            "NORMAL": 23,
            "POSITION": 22,
            "TEXCOORD_0": 24,
            "TEXCOORD_1": 25
          },
          "indices": 26,
          "material": 4,
          "mode": 4
        }
      ]
    }
  ],
  "nodes": [
    {
      "children": [
        1
      ],
      "name": "RootNode (gltf orientation matrix)",
      "rotation": [
        -0.70710678118654746,
        -0,
        -0,
        0.70710678118654757
      ]
    },
    {
      "children": [
        2
      ],
      "name": "RootNode (model correction matrix)"
    },
    {
      "children": [
        3
      ],
      "matrix": [
        1,
        0,
        0,
        0,
        0,
        0,
        1,
        0,
        0,
        -1,
        0,
        0,
        0,
        0,
        0,
        1
      ],
      "name": "rumah_stylized - upload.fbx"
    },
    {
      "children": [
        4
      ],
      "name": "RootNode"
    },
    {
      "children": [
        5,
        6,
        7,
        8,
        9
      ],
      "matrix": [
        100,
        0,
        0,
        0,
        0,
        -1.6292067939183141e-05,
        -99.999999999998678,
        0,
        0,
        99.999999999998678,
        -1.6292067939183141e-05,
        0,
        0,
        0,
        0,
        1
      ],
      "name": "rumah_desa"
    },
    {
      "mesh": 0,
      "name": "rumah_desa_rumah_tembok_0"
    },
    {
      "mesh": 1,
      "name": "rumah_desa_jendela_pintu_0"
    },
    {
      "mesh": 2,
      "name": "rumah_desa_rumah_genteng_0"
    },
    {
      "mesh": 3,
      "name": "rumah_desa_tangga_0"
    },
    {
      "mesh": 4,
      "name": "rumah_desa_rumah_papan_0"
    }
  ],
  "samplers": [
    {
      "magFilter": 9729,
      "minFilter": 9987,
      "wrapS": 10497,
      "wrapT": 10497
    }
  ],
  "scene": 0,
  "scenes": [
    {
      "name": "OSG_Scene",
      "nodes": [
        0
      ]
    }
  ],
  "textures": [
    {
      "sampler": 0,
      "source": 0
    },
    {
      "sampler": 0,
      "source": 1
    },
    {
      "sampler": 0,
      "source": 2
    },
    {
      "sampler": 0,
      "source": 3
    },
    {
      "sampler": 0,
      "source": 4
    },
    {
      "sampler": 0,
      "source": 5
    },
    {
      "sampler": 0,
      "source": 6
    },
    {
      "sampler": 0,
      "source": 7
    },
    {
      "sampler": 0,
      "source": 8
    },
    {
      "sampler": 0,
      "source": 9
    },
    {
      "sampler": 0,
      "source": 10
    },
    {
      "sampler": 0,
      "source": 11
    }
  ]
}

